<svg width="603" height="89" viewBox="0 0 603 89" fill="none" xmlns="http://www.w3.org/2000/svg">
<rect y="2.78577" width="602" height="85.9643" fill="#A4BBD6"/>
<g filter="url(#filter0_d_115_4)">
<path d="M66.2821 69.85H72.4321V63.7H78.5821V26.8H72.4321V20.65H66.2821V14.5H53.9821H47.8321H10.9321V76H66.2821V69.85ZM47.8321 32.95H53.9821V57.55H47.8321V63.7H35.5321V26.8H47.8321V32.95ZM109.284 51.4H127.734V76H152.334V51.4H146.184V39.1H152.334V20.65H146.184V14.5H127.734H109.284H84.6841V76H109.284V51.4ZM109.284 26.8H127.734V39.1H109.284V26.8ZM183.036 51.4H201.486V76H226.086V20.65H219.936V14.5H201.486H164.586V20.65H158.436V76H183.036V51.4ZM183.036 26.8H201.486V39.1H183.036V26.8ZM256.788 69.85H262.938V63.7H269.088V57.55H275.238V63.7H281.388V69.85H287.538V76H312.138V14.5H287.538V45.25H281.388V39.1H275.238V32.95H269.088V39.1H262.938V45.25H256.788V14.5H232.188V76H256.788V69.85ZM318.312 26.8H336.762V63.7H318.312V76H379.812V63.7H361.362V26.8H379.812V14.5H318.312V26.8ZM385.938 76H453.588V63.7H410.538V14.5H385.938V76ZM459.69 26.8H478.14V63.7H459.69V76H521.19V63.7H502.74V26.8H521.19V14.5H459.69V26.8ZM588.816 69.85H594.966V20.65H588.816V14.5H533.466V20.65H527.316V69.85H533.466V76H588.816V69.85ZM570.366 51.4V63.7H551.916V26.8H570.366V39.1V51.4Z" fill="url(#paint0_linear_115_4)"/>
<path d="M66.2821 69.85V68.85H65.2821V69.85H66.2821ZM72.4321 69.85V70.85H73.4321V69.85H72.4321ZM72.4321 63.7V62.7H71.4321V63.7H72.4321ZM78.5821 63.7V64.7H79.5821V63.7H78.5821ZM78.5821 26.8H79.5821V25.8H78.5821V26.8ZM72.4321 26.8H71.4321V27.8H72.4321V26.8ZM72.4321 20.65H73.4321V19.65H72.4321V20.65ZM66.2821 20.65H65.2821V21.65H66.2821V20.65ZM66.2821 14.5H67.2821V13.5H66.2821V14.5ZM10.9321 14.5V13.5H9.93213V14.5H10.9321ZM10.9321 76H9.93213V77H10.9321V76ZM66.2821 76V77H67.2821V76H66.2821ZM47.8321 32.95H46.8321V33.95H47.8321V32.95ZM53.9821 32.95H54.9821V31.95H53.9821V32.95ZM53.9821 57.55V58.55H54.9821V57.55H53.9821ZM47.8321 57.55V56.55H46.8321V57.55H47.8321ZM47.8321 63.7V64.7H48.8321V63.7H47.8321ZM35.5321 63.7H34.5321V64.7H35.5321V63.7ZM35.5321 26.8V25.8H34.5321V26.8H35.5321ZM47.8321 26.8H48.8321V25.8H47.8321V26.8ZM66.2821 70.85H72.4321V68.85H66.2821V70.85ZM73.4321 69.85V63.7H71.4321V69.85H73.4321ZM72.4321 64.7H78.5821V62.7H72.4321V64.7ZM79.5821 63.7V26.8H77.5821V63.7H79.5821ZM78.5821 25.8H72.4321V27.8H78.5821V25.8ZM73.4321 26.8V20.65H71.4321V26.8H73.4321ZM72.4321 19.65H66.2821V21.65H72.4321V19.65ZM67.2821 20.65V14.5H65.2821V20.65H67.2821ZM66.2821 13.5H53.9821V15.5H66.2821V13.5ZM53.9821 13.5H47.8321V15.5H53.9821V13.5ZM47.8321 13.5H10.9321V15.5H47.8321V13.5ZM9.93213 14.5V76H11.9321V14.5H9.93213ZM10.9321 77H66.2821V75H10.9321V77ZM67.2821 76V69.85H65.2821V76H67.2821ZM47.8321 33.95H53.9821V31.95H47.8321V33.95ZM52.9821 32.95V57.55H54.9821V32.95H52.9821ZM53.9821 56.55H47.8321V58.55H53.9821V56.55ZM46.8321 57.55V63.7H48.8321V57.55H46.8321ZM47.8321 62.7H35.5321V64.7H47.8321V62.7ZM36.5321 63.7V26.8H34.5321V63.7H36.5321ZM35.5321 27.8H47.8321V25.8H35.5321V27.8ZM46.8321 26.8V32.95H48.8321V26.8H46.8321ZM109.284 51.4V50.4H108.284V51.4H109.284ZM127.734 51.4H128.734V50.4H127.734V51.4ZM127.734 76H126.734V77H127.734V76ZM152.334 76V77H153.334V76H152.334ZM152.334 51.4H153.334V50.4H152.334V51.4ZM146.184 51.4H145.184V52.4H146.184V51.4ZM146.184 39.1V38.1H145.184V39.1H146.184ZM152.334 39.1V40.1H153.334V39.1H152.334ZM152.334 20.65H153.334V19.65H152.334V20.65ZM146.184 20.65H145.184V21.65H146.184V20.65ZM146.184 14.5H147.184V13.5H146.184V14.5ZM84.6841 14.5V13.5H83.6841V14.5H84.6841ZM84.6841 76H83.6841V77H84.6841V76ZM109.284 76V77H110.284V76H109.284ZM109.284 26.8V25.8H108.284V26.8H109.284ZM127.734 26.8H128.734V25.8H127.734V26.8ZM127.734 39.1V40.1H128.734V39.1H127.734ZM109.284 39.1H108.284V40.1H109.284V39.1ZM109.284 52.4H127.734V50.4H109.284V52.4ZM126.734 51.4V76H128.734V51.4H126.734ZM127.734 77H152.334V75H127.734V77ZM153.334 76V51.4H151.334V76H153.334ZM152.334 50.4H146.184V52.4H152.334V50.4ZM147.184 51.4V39.1H145.184V51.4H147.184ZM146.184 40.1H152.334V38.1H146.184V40.1ZM153.334 39.1V20.65H151.334V39.1H153.334ZM152.334 19.65H146.184V21.65H152.334V19.65ZM147.184 20.65V14.5H145.184V20.65H147.184ZM146.184 13.5H127.734V15.5H146.184V13.5ZM127.734 13.5H109.284V15.5H127.734V13.5ZM109.284 13.5H84.6841V15.5H109.284V13.5ZM83.6841 14.5V76H85.6841V14.5H83.6841ZM84.6841 77H109.284V75H84.6841V77ZM110.284 76V51.4H108.284V76H110.284ZM109.284 27.8H127.734V25.8H109.284V27.8ZM126.734 26.8V39.1H128.734V26.8H126.734ZM127.734 38.1H109.284V40.1H127.734V38.1ZM110.284 39.1V26.8H108.284V39.1H110.284ZM183.036 51.4V50.4H182.036V51.4H183.036ZM201.486 51.4H202.486V50.4H201.486V51.4ZM201.486 76H200.486V77H201.486V76ZM226.086 76V77H227.086V76H226.086ZM226.086 20.65H227.086V19.65H226.086V20.65ZM219.936 20.65H218.936V21.65H219.936V20.65ZM219.936 14.5H220.936V13.5H219.936V14.5ZM164.586 14.5V13.5H163.586V14.5H164.586ZM164.586 20.65V21.65H165.586V20.65H164.586ZM158.436 20.65V19.65H157.436V20.65H158.436ZM158.436 76H157.436V77H158.436V76ZM183.036 76V77H184.036V76H183.036ZM183.036 26.8V25.8H182.036V26.8H183.036ZM201.486 26.8H202.486V25.8H201.486V26.8ZM201.486 39.1V40.1H202.486V39.1H201.486ZM183.036 39.1H182.036V40.1H183.036V39.1ZM183.036 52.4H201.486V50.4H183.036V52.4ZM200.486 51.4V76H202.486V51.4H200.486ZM201.486 77H226.086V75H201.486V77ZM227.086 76V20.65H225.086V76H227.086ZM226.086 19.65H219.936V21.65H226.086V19.65ZM220.936 20.65V14.5H218.936V20.65H220.936ZM219.936 13.5H201.486V15.5H219.936V13.5ZM201.486 13.5H164.586V15.5H201.486V13.5ZM163.586 14.5V20.65H165.586V14.5H163.586ZM164.586 19.65H158.436V21.65H164.586V19.65ZM157.436 20.65V76H159.436V20.65H157.436ZM158.436 77H183.036V75H158.436V77ZM184.036 76V51.4H182.036V76H184.036ZM183.036 27.8H201.486V25.8H183.036V27.8ZM200.486 26.8V39.1H202.486V26.8H200.486ZM201.486 38.1H183.036V40.1H201.486V38.1ZM184.036 39.1V26.8H182.036V39.1H184.036ZM256.788 69.85V68.85H255.788V69.85H256.788ZM262.938 69.85V70.85H263.938V69.85H262.938ZM262.938 63.7V62.7H261.938V63.7H262.938ZM269.088 63.7V64.7H270.088V63.7H269.088ZM269.088 57.55V56.55H268.088V57.55H269.088ZM275.238 57.55H276.238V56.55H275.238V57.55ZM275.238 63.7H274.238V64.7H275.238V63.7ZM281.388 63.7H282.388V62.7H281.388V63.7ZM281.388 69.85H280.388V70.85H281.388V69.85ZM287.538 69.85H288.538V68.85H287.538V69.85ZM287.538 76H286.538V77H287.538V76ZM312.138 76V77H313.138V76H312.138ZM312.138 14.5H313.138V13.5H312.138V14.5ZM287.538 14.5V13.5H286.538V14.5H287.538ZM287.538 45.25V46.25H288.538V45.25H287.538ZM281.388 45.25H280.388V46.25H281.388V45.25ZM281.388 39.1H282.388V38.1H281.388V39.1ZM275.238 39.1H274.238V40.1H275.238V39.1ZM275.238 32.95H276.238V31.95H275.238V32.95ZM269.088 32.95V31.95H268.088V32.95H269.088ZM269.088 39.1V40.1H270.088V39.1H269.088ZM262.938 39.1V38.1H261.938V39.1H262.938ZM262.938 45.25V46.25H263.938V45.25H262.938ZM256.788 45.25H255.788V46.25H256.788V45.25ZM256.788 14.5H257.788V13.5H256.788V14.5ZM232.188 14.5V13.5H231.188V14.5H232.188ZM232.188 76H231.188V77H232.188V76ZM256.788 76V77H257.788V76H256.788ZM256.788 70.85H262.938V68.85H256.788V70.85ZM263.938 69.85V63.7H261.938V69.85H263.938ZM262.938 64.7H269.088V62.7H262.938V64.7ZM270.088 63.7V57.55H268.088V63.7H270.088ZM269.088 58.55H275.238V56.55H269.088V58.55ZM274.238 57.55V63.7H276.238V57.55H274.238ZM275.238 64.7H281.388V62.7H275.238V64.7ZM280.388 63.7V69.85H282.388V63.7H280.388ZM281.388 70.85H287.538V68.85H281.388V70.85ZM286.538 69.85V76H288.538V69.85H286.538ZM287.538 77H312.138V75H287.538V77ZM313.138 76V14.5H311.138V76H313.138ZM312.138 13.5H287.538V15.5H312.138V13.5ZM286.538 14.5V45.25H288.538V14.5H286.538ZM287.538 44.25H281.388V46.25H287.538V44.25ZM282.388 45.25V39.1H280.388V45.25H282.388ZM281.388 38.1H275.238V40.1H281.388V38.1ZM276.238 39.1V32.95H274.238V39.1H276.238ZM275.238 31.95H269.088V33.95H275.238V31.95ZM268.088 32.95V39.1H270.088V32.95H268.088ZM269.088 38.1H262.938V40.1H269.088V38.1ZM261.938 39.1V45.25H263.938V39.1H261.938ZM262.938 44.25H256.788V46.25H262.938V44.25ZM257.788 45.25V14.5H255.788V45.25H257.788ZM256.788 13.5H232.188V15.5H256.788V13.5ZM231.188 14.5V76H233.188V14.5H231.188ZM232.188 77H256.788V75H232.188V77ZM257.788 76V69.85H255.788V76H257.788ZM318.312 26.8H317.312V27.8H318.312V26.8ZM336.762 26.8H337.762V25.8H336.762V26.8ZM336.762 63.7V64.7H337.762V63.7H336.762ZM318.312 63.7V62.7H317.312V63.7H318.312ZM318.312 76H317.312V77H318.312V76ZM379.812 76V77H380.812V76H379.812ZM379.812 63.7H380.812V62.7H379.812V63.7ZM361.362 63.7H360.362V64.7H361.362V63.7ZM361.362 26.8V25.8H360.362V26.8H361.362ZM379.812 26.8V27.8H380.812V26.8H379.812ZM379.812 14.5H380.812V13.5H379.812V14.5ZM318.312 14.5V13.5H317.312V14.5H318.312ZM318.312 27.8H336.762V25.8H318.312V27.8ZM335.762 26.8V63.7H337.762V26.8H335.762ZM336.762 62.7H318.312V64.7H336.762V62.7ZM317.312 63.7V76H319.312V63.7H317.312ZM318.312 77H379.812V75H318.312V77ZM380.812 76V63.7H378.812V76H380.812ZM379.812 62.7H361.362V64.7H379.812V62.7ZM362.362 63.7V26.8H360.362V63.7H362.362ZM361.362 27.8H379.812V25.8H361.362V27.8ZM380.812 26.8V14.5H378.812V26.8H380.812ZM379.812 13.5H318.312V15.5H379.812V13.5ZM317.312 14.5V26.8H319.312V14.5H317.312ZM385.938 76H384.938V77H385.938V76ZM453.588 76V77H454.588V76H453.588ZM453.588 63.7H454.588V62.7H453.588V63.7ZM410.538 63.7H409.538V64.7H410.538V63.7ZM410.538 14.5H411.538V13.5H410.538V14.5ZM385.938 14.5V13.5H384.938V14.5H385.938ZM385.938 77H453.588V75H385.938V77ZM454.588 76V63.7H452.588V76H454.588ZM453.588 62.7H410.538V64.7H453.588V62.7ZM411.538 63.7V14.5H409.538V63.7H411.538ZM410.538 13.5H385.938V15.5H410.538V13.5ZM384.938 14.5V76H386.938V14.5H384.938ZM459.69 26.8H458.69V27.8H459.69V26.8ZM478.14 26.8H479.14V25.8H478.14V26.8ZM478.14 63.7V64.7H479.14V63.7H478.14ZM459.69 63.7V62.7H458.69V63.7H459.69ZM459.69 76H458.69V77H459.69V76ZM521.19 76V77H522.19V76H521.19ZM521.19 63.7H522.19V62.7H521.19V63.7ZM502.74 63.7H501.74V64.7H502.74V63.7ZM502.74 26.8V25.8H501.74V26.8H502.74ZM521.19 26.8V27.8H522.19V26.8H521.19ZM521.19 14.5H522.19V13.5H521.19V14.5ZM459.69 14.5V13.5H458.69V14.5H459.69ZM459.69 27.8H478.14V25.8H459.69V27.8ZM477.14 26.8V63.7H479.14V26.8H477.14ZM478.14 62.7H459.69V64.7H478.14V62.7ZM458.69 63.7V76H460.69V63.7H458.69ZM459.69 77H521.19V75H459.69V77ZM522.19 76V63.7H520.19V76H522.19ZM521.19 62.7H502.74V64.7H521.19V62.7ZM503.74 63.7V26.8H501.74V63.7H503.74ZM502.74 27.8H521.19V25.8H502.74V27.8ZM522.19 26.8V14.5H520.19V26.8H522.19ZM521.19 13.5H459.69V15.5H521.19V13.5ZM458.69 14.5V26.8H460.69V14.5H458.69ZM588.816 69.85V68.85H587.816V69.85H588.816ZM594.966 69.85V70.85H595.966V69.85H594.966ZM594.966 20.65H595.966V19.65H594.966V20.65ZM588.816 20.65H587.816V21.65H588.816V20.65ZM588.816 14.5H589.816V13.5H588.816V14.5ZM533.466 14.5V13.5H532.466V14.5H533.466ZM533.466 20.65V21.65H534.466V20.65H533.466ZM527.316 20.65V19.65H526.316V20.65H527.316ZM527.316 69.85H526.316V70.85H527.316V69.85ZM533.466 69.85H534.466V68.85H533.466V69.85ZM533.466 76H532.466V77H533.466V76ZM588.816 76V77H589.816V76H588.816ZM570.366 63.7V64.7H571.366V63.7H570.366ZM551.916 63.7H550.916V64.7H551.916V63.7ZM551.916 26.8V25.8H550.916V26.8H551.916ZM570.366 26.8H571.366V25.8H570.366V26.8ZM588.816 70.85H594.966V68.85H588.816V70.85ZM595.966 69.85V20.65H593.966V69.85H595.966ZM594.966 19.65H588.816V21.65H594.966V19.65ZM589.816 20.65V14.5H587.816V20.65H589.816ZM588.816 13.5H533.466V15.5H588.816V13.5ZM532.466 14.5V20.65H534.466V14.5H532.466ZM533.466 19.65H527.316V21.65H533.466V19.65ZM526.316 20.65V69.85H528.316V20.65H526.316ZM527.316 70.85H533.466V68.85H527.316V70.85ZM532.466 69.85V76H534.466V69.85H532.466ZM533.466 77H588.816V75H533.466V77ZM589.816 76V69.85H587.816V76H589.816ZM569.366 51.4V63.7H571.366V51.4H569.366ZM570.366 62.7H551.916V64.7H570.366V62.7ZM552.916 63.7V26.8H550.916V63.7H552.916ZM551.916 27.8H570.366V25.8H551.916V27.8ZM569.366 26.8V39.1H571.366V26.8H569.366ZM569.366 39.1V51.4H571.366V39.1H569.366Z" fill="black"/>
</g>
<defs>
<filter id="filter0_d_115_4" x="10.9321" y="14.5" width="592.034" height="69.5" filterUnits="userSpaceOnUse" color-interpolation-filters="sRGB">
<feFlood flood-opacity="0" result="BackgroundImageFix"/>
<feColorMatrix in="SourceAlpha" type="matrix" values="0 0 0 0 0 0 0 0 0 0 0 0 0 0 0 0 0 0 127 0" result="hardAlpha"/>
<feOffset dx="4" dy="4"/>
<feGaussianBlur stdDeviation="2"/>
<feComposite in2="hardAlpha" operator="out"/>
<feColorMatrix type="matrix" values="0 0 0 0 0 0 0 0 0 0 0 0 0 0 0 0 0 0 0.25 0"/>
<feBlend mode="normal" in2="BackgroundImageFix" result="effect1_dropShadow_115_4"/>
<feBlend mode="normal" in="SourceGraphic" in2="effect1_dropShadow_115_4" result="shape"/>
</filter>
<linearGradient id="paint0_linear_115_4" x1="305.985" y1="21.5134" x2="306.025" y2="57.4866" gradientUnits="userSpaceOnUse">
<stop stop-color="#FFF4CB"/>
<stop offset="1" stop-color="#FFA800"/>
</linearGradient>
</defs>
</svg>
