<svg width="111" height="58" viewBox="0 0 111 58" fill="none" xmlns="http://www.w3.org/2000/svg">
<g filter="url(#filter0_d_3_1946)">
<rect x="4" y="2" width="103" height="48" fill="#FFBE00"/>
<rect x="6.5" y="4.5" width="98" height="43" stroke="black" strokeWidth="5"/>
</g>
<g style="mix-blend-mode:hard-light" filter="url(#filter1_d_3_1946)">
<path d="M34 24H32V28H34V24ZM78.4142 27.4142C79.1953 26.6332 79.1953 25.3668 78.4142 24.5858L65.6863 11.8579C64.9052 11.0768 63.6389 11.0768 62.8579 11.8579C62.0768 12.6389 62.0768 13.9052 62.8579 14.6863L74.1716 26L62.8579 37.3137C62.0768 38.0948 62.0768 39.3611 62.8579 40.1421C63.6389 40.9232 64.9052 40.9232 65.6863 40.1421L78.4142 27.4142ZM34 28H77V24H34V28Z" fill="black"/>
</g>
<path d="M8.48276 6.54737V2H102.517V6.54737H106V44.9474H102.517V50H8.48276V44.9474H5V6.54737H8.48276Z" stroke="black" strokeWidth="4"/>
<defs>
<filter id="filter0_d_3_1946" x="0" y="2" width="111" height="56" filterUnits="userSpaceOnUse" color-interpolation-filters="sRGB">
<feFlood flood-opacity="0" result="BackgroundImageFix"/>
<feColorMatrix in="SourceAlpha" type="matrix" values="0 0 0 0 0 0 0 0 0 0 0 0 0 0 0 0 0 0 127 0" result="hardAlpha"/>
<feOffset dy="4"/>
<feGaussianBlur stdDeviation="2"/>
<feComposite in2="hardAlpha" operator="out"/>
<feColorMatrix type="matrix" values="0 0 0 0 0 0 0 0 0 0 0 0 0 0 0 0 0 0 0.25 0"/>
<feBlend mode="normal" in2="BackgroundImageFix" result="effect1_dropShadow_3_1946"/>
<feBlend mode="normal" in="SourceGraphic" in2="effect1_dropShadow_3_1946" result="shape"/>
</filter>
<filter id="filter1_d_3_1946" x="28" y="11.2721" width="55" height="37.4558" filterUnits="userSpaceOnUse" color-interpolation-filters="sRGB">
<feFlood flood-opacity="0" result="BackgroundImageFix"/>
<feColorMatrix in="SourceAlpha" type="matrix" values="0 0 0 0 0 0 0 0 0 0 0 0 0 0 0 0 0 0 127 0" result="hardAlpha"/>
<feOffset dy="4"/>
<feGaussianBlur stdDeviation="2"/>
<feComposite in2="hardAlpha" operator="out"/>
<feColorMatrix type="matrix" values="0 0 0 0 0 0 0 0 0 0 0 0 0 0 0 0 0 0 0.25 0"/>
<feBlend mode="normal" in2="BackgroundImageFix" result="effect1_dropShadow_3_1946"/>
<feBlend mode="normal" in="SourceGraphic" in2="effect1_dropShadow_3_1946" result="shape"/>
</filter>
</defs>
</svg>
