<svg width="403" height="75" viewBox="0 0 403 75" fill="none" xmlns="http://www.w3.org/2000/svg">
<rect y="8" width="403" height="67" fill="#A4BBD6"/>
<g filter="url(#filter0_d_115_4)">
<path d="M49 57H53V53H57V29H53V25H49V21H41H37H13V61H49V57ZM37 33H41V49H37V53H29V29H37V33ZM76.9688 45H88.9688V61H104.969V45H100.969V37H104.969V25H100.969V21H88.9688H76.9688H60.9688V61H76.9688V45ZM76.9688 29H88.9688V37H76.9688V29ZM124.938 45H136.938V61H152.938V25H148.938V21H136.938H112.938V25H108.938V61H124.938V45ZM124.938 29H136.938V37H124.938V29ZM172.906 57H176.906V53H180.906V49H184.906V53H188.906V57H192.906V61H208.906V21H192.906V41H188.906V37H184.906V33H180.906V37H176.906V41H172.906V21H156.906V61H172.906V57ZM212.922 29H224.922V53H212.922V61H252.922V53H240.922V29H252.922V21H212.922V29ZM256.906 61H300.906V53H272.906V21H256.906V61ZM304.875 29H316.875V53H304.875V61H344.875V53H332.875V29H344.875V21H304.875V29ZM388.859 57H392.859V25H388.859V21H352.859V25H348.859V57H352.859V61H388.859V57ZM376.859 45V53H364.859V29H376.859V37V45Z" fill="url(#paint0_linear_115_4)"/>
<path d="M49 57V56H48V57H49ZM53 57V58H54V57H53ZM53 53V52H52V53H53ZM57 53V54H58V53H57ZM57 29H58V28H57V29ZM53 29H52V30H53V29ZM53 25H54V24H53V25ZM49 25H48V26H49V25ZM49 21H50V20H49V21ZM13 21V20H12V21H13ZM13 61H12V62H13V61ZM49 61V62H50V61H49ZM37 33H36V34H37V33ZM41 33H42V32H41V33ZM41 49V50H42V49H41ZM37 49V48H36V49H37ZM37 53V54H38V53H37ZM29 53H28V54H29V53ZM29 29V28H28V29H29ZM37 29H38V28H37V29ZM49 58H53V56H49V58ZM54 57V53H52V57H54ZM53 54H57V52H53V54ZM58 53V29H56V53H58ZM57 28H53V30H57V28ZM54 29V25H52V29H54ZM53 24H49V26H53V24ZM50 25V21H48V25H50ZM49 20H41V22H49V20ZM41 20H37V22H41V20ZM37 20H13V22H37V20ZM12 21V61H14V21H12ZM13 62H49V60H13V62ZM50 61V57H48V61H50ZM37 34H41V32H37V34ZM40 33V49H42V33H40ZM41 48H37V50H41V48ZM36 49V53H38V49H36ZM37 52H29V54H37V52ZM30 53V29H28V53H30ZM29 30H37V28H29V30ZM36 29V33H38V29H36ZM76.9688 45V44H75.9688V45H76.9688ZM88.9688 45H89.9688V44H88.9688V45ZM88.9688 61H87.9688V62H88.9688V61ZM104.969 61V62H105.969V61H104.969ZM104.969 45H105.969V44H104.969V45ZM100.969 45H99.9688V46H100.969V45ZM100.969 37V36H99.9688V37H100.969ZM104.969 37V38H105.969V37H104.969ZM104.969 25H105.969V24H104.969V25ZM100.969 25H99.9688V26H100.969V25ZM100.969 21H101.969V20H100.969V21ZM60.9688 21V20H59.9688V21H60.9688ZM60.9688 61H59.9688V62H60.9688V61ZM76.9688 61V62H77.9688V61H76.9688ZM76.9688 29V28H75.9688V29H76.9688ZM88.9688 29H89.9688V28H88.9688V29ZM88.9688 37V38H89.9688V37H88.9688ZM76.9688 37H75.9688V38H76.9688V37ZM76.9688 46H88.9688V44H76.9688V46ZM87.9688 45V61H89.9688V45H87.9688ZM88.9688 62H104.969V60H88.9688V62ZM105.969 61V45H103.969V61H105.969ZM104.969 44H100.969V46H104.969V44ZM101.969 45V37H99.9688V45H101.969ZM100.969 38H104.969V36H100.969V38ZM105.969 37V25H103.969V37H105.969ZM104.969 24H100.969V26H104.969V24ZM101.969 25V21H99.9688V25H101.969ZM100.969 20H88.9688V22H100.969V20ZM88.9688 20H76.9688V22H88.9688V20ZM76.9688 20H60.9688V22H76.9688V20ZM59.9688 21V61H61.9688V21H59.9688ZM60.9688 62H76.9688V60H60.9688V62ZM77.9688 61V45H75.9688V61H77.9688ZM76.9688 30H88.9688V28H76.9688V30ZM87.9688 29V37H89.9688V29H87.9688ZM88.9688 36H76.9688V38H88.9688V36ZM77.9688 37V29H75.9688V37H77.9688ZM124.938 45V44H123.938V45H124.938ZM136.938 45H137.938V44H136.938V45ZM136.938 61H135.938V62H136.938V61ZM152.938 61V62H153.938V61H152.938ZM152.938 25H153.938V24H152.938V25ZM148.938 25H147.938V26H148.938V25ZM148.938 21H149.938V20H148.938V21ZM112.938 21V20H111.938V21H112.938ZM112.938 25V26H113.938V25H112.938ZM108.938 25V24H107.938V25H108.938ZM108.938 61H107.938V62H108.938V61ZM124.938 61V62H125.938V61H124.938ZM124.938 29V28H123.938V29H124.938ZM136.938 29H137.938V28H136.938V29ZM136.938 37V38H137.938V37H136.938ZM124.938 37H123.938V38H124.938V37ZM124.938 46H136.938V44H124.938V46ZM135.938 45V61H137.938V45H135.938ZM136.938 62H152.938V60H136.938V62ZM153.938 61V25H151.938V61H153.938ZM152.938 24H148.938V26H152.938V24ZM149.938 25V21H147.938V25H149.938ZM148.938 20H136.938V22H148.938V20ZM136.938 20H112.938V22H136.938V20ZM111.938 21V25H113.938V21H111.938ZM112.938 24H108.938V26H112.938V24ZM107.938 25V61H109.938V25H107.938ZM108.938 62H124.938V60H108.938V62ZM125.938 61V45H123.938V61H125.938ZM124.938 30H136.938V28H124.938V30ZM135.938 29V37H137.938V29H135.938ZM136.938 36H124.938V38H136.938V36ZM125.938 37V29H123.938V37H125.938ZM172.906 57V56H171.906V57H172.906ZM176.906 57V58H177.906V57H176.906ZM176.906 53V52H175.906V53H176.906ZM180.906 53V54H181.906V53H180.906ZM180.906 49V48H179.906V49H180.906ZM184.906 49H185.906V48H184.906V49ZM184.906 53H183.906V54H184.906V53ZM188.906 53H189.906V52H188.906V53ZM188.906 57H187.906V58H188.906V57ZM192.906 57H193.906V56H192.906V57ZM192.906 61H191.906V62H192.906V61ZM208.906 61V62H209.906V61H208.906ZM208.906 21H209.906V20H208.906V21ZM192.906 21V20H191.906V21H192.906ZM192.906 41V42H193.906V41H192.906ZM188.906 41H187.906V42H188.906V41ZM188.906 37H189.906V36H188.906V37ZM184.906 37H183.906V38H184.906V37ZM184.906 33H185.906V32H184.906V33ZM180.906 33V32H179.906V33H180.906ZM180.906 37V38H181.906V37H180.906ZM176.906 37V36H175.906V37H176.906ZM176.906 41V42H177.906V41H176.906ZM172.906 41H171.906V42H172.906V41ZM172.906 21H173.906V20H172.906V21ZM156.906 21V20H155.906V21H156.906ZM156.906 61H155.906V62H156.906V61ZM172.906 61V62H173.906V61H172.906ZM172.906 58H176.906V56H172.906V58ZM177.906 57V53H175.906V57H177.906ZM176.906 54H180.906V52H176.906V54ZM181.906 53V49H179.906V53H181.906ZM180.906 50H184.906V48H180.906V50ZM183.906 49V53H185.906V49H183.906ZM184.906 54H188.906V52H184.906V54ZM187.906 53V57H189.906V53H187.906ZM188.906 58H192.906V56H188.906V58ZM191.906 57V61H193.906V57H191.906ZM192.906 62H208.906V60H192.906V62ZM209.906 61V21H207.906V61H209.906ZM208.906 20H192.906V22H208.906V20ZM191.906 21V41H193.906V21H191.906ZM192.906 40H188.906V42H192.906V40ZM189.906 41V37H187.906V41H189.906ZM188.906 36H184.906V38H188.906V36ZM185.906 37V33H183.906V37H185.906ZM184.906 32H180.906V34H184.906V32ZM179.906 33V37H181.906V33H179.906ZM180.906 36H176.906V38H180.906V36ZM175.906 37V41H177.906V37H175.906ZM176.906 40H172.906V42H176.906V40ZM173.906 41V21H171.906V41H173.906ZM172.906 20H156.906V22H172.906V20ZM155.906 21V61H157.906V21H155.906ZM156.906 62H172.906V60H156.906V62ZM173.906 61V57H171.906V61H173.906ZM212.922 29H211.922V30H212.922V29ZM224.922 29H225.922V28H224.922V29ZM224.922 53V54H225.922V53H224.922ZM212.922 53V52H211.922V53H212.922ZM212.922 61H211.922V62H212.922V61ZM252.922 61V62H253.922V61H252.922ZM252.922 53H253.922V52H252.922V53ZM240.922 53H239.922V54H240.922V53ZM240.922 29V28H239.922V29H240.922ZM252.922 29V30H253.922V29H252.922ZM252.922 21H253.922V20H252.922V21ZM212.922 21V20H211.922V21H212.922ZM212.922 30H224.922V28H212.922V30ZM223.922 29V53H225.922V29H223.922ZM224.922 52H212.922V54H224.922V52ZM211.922 53V61H213.922V53H211.922ZM212.922 62H252.922V60H212.922V62ZM253.922 61V53H251.922V61H253.922ZM252.922 52H240.922V54H252.922V52ZM241.922 53V29H239.922V53H241.922ZM240.922 30H252.922V28H240.922V30ZM253.922 29V21H251.922V29H253.922ZM252.922 20H212.922V22H252.922V20ZM211.922 21V29H213.922V21H211.922ZM256.906 61H255.906V62H256.906V61ZM300.906 61V62H301.906V61H300.906ZM300.906 53H301.906V52H300.906V53ZM272.906 53H271.906V54H272.906V53ZM272.906 21H273.906V20H272.906V21ZM256.906 21V20H255.906V21H256.906ZM256.906 62H300.906V60H256.906V62ZM301.906 61V53H299.906V61H301.906ZM300.906 52H272.906V54H300.906V52ZM273.906 53V21H271.906V53H273.906ZM272.906 20H256.906V22H272.906V20ZM255.906 21V61H257.906V21H255.906ZM304.875 29H303.875V30H304.875V29ZM316.875 29H317.875V28H316.875V29ZM316.875 53V54H317.875V53H316.875ZM304.875 53V52H303.875V53H304.875ZM304.875 61H303.875V62H304.875V61ZM344.875 61V62H345.875V61H344.875ZM344.875 53H345.875V52H344.875V53ZM332.875 53H331.875V54H332.875V53ZM332.875 29V28H331.875V29H332.875ZM344.875 29V30H345.875V29H344.875ZM344.875 21H345.875V20H344.875V21ZM304.875 21V20H303.875V21H304.875ZM304.875 30H316.875V28H304.875V30ZM315.875 29V53H317.875V29H315.875ZM316.875 52H304.875V54H316.875V52ZM303.875 53V61H305.875V53H303.875ZM304.875 62H344.875V60H304.875V62ZM345.875 61V53H343.875V61H345.875ZM344.875 52H332.875V54H344.875V52ZM333.875 53V29H331.875V53H333.875ZM332.875 30H344.875V28H332.875V30ZM345.875 29V21H343.875V29H345.875ZM344.875 20H304.875V22H344.875V20ZM303.875 21V29H305.875V21H303.875ZM388.859 57V56H387.859V57H388.859ZM392.859 57V58H393.859V57H392.859ZM392.859 25H393.859V24H392.859V25ZM388.859 25H387.859V26H388.859V25ZM388.859 21H389.859V20H388.859V21ZM352.859 21V20H351.859V21H352.859ZM352.859 25V26H353.859V25H352.859ZM348.859 25V24H347.859V25H348.859ZM348.859 57H347.859V58H348.859V57ZM352.859 57H353.859V56H352.859V57ZM352.859 61H351.859V62H352.859V61ZM388.859 61V62H389.859V61H388.859ZM376.859 53V54H377.859V53H376.859ZM364.859 53H363.859V54H364.859V53ZM364.859 29V28H363.859V29H364.859ZM376.859 29H377.859V28H376.859V29ZM388.859 58H392.859V56H388.859V58ZM393.859 57V25H391.859V57H393.859ZM392.859 24H388.859V26H392.859V24ZM389.859 25V21H387.859V25H389.859ZM388.859 20H352.859V22H388.859V20ZM351.859 21V25H353.859V21H351.859ZM352.859 24H348.859V26H352.859V24ZM347.859 25V57H349.859V25H347.859ZM348.859 58H352.859V56H348.859V58ZM351.859 57V61H353.859V57H351.859ZM352.859 62H388.859V60H352.859V62ZM389.859 61V57H387.859V61H389.859ZM375.859 45V53H377.859V45H375.859ZM376.859 52H364.859V54H376.859V52ZM365.859 53V29H363.859V53H365.859ZM364.859 30H376.859V28H364.859V30ZM375.859 29V37H377.859V29H375.859ZM375.859 37V45H377.859V37H375.859Z" fill="black"/>
</g>
<defs>
<filter id="filter0_d_115_4" x="13" y="21" width="387.859" height="48" filterUnits="userSpaceOnUse" color-interpolation-filters="sRGB">
<feFlood flood-opacity="0" result="BackgroundImageFix"/>
<feColorMatrix in="SourceAlpha" type="matrix" values="0 0 0 0 0 0 0 0 0 0 0 0 0 0 0 0 0 0 127 0" result="hardAlpha"/>
<feOffset dx="4" dy="4"/>
<feGaussianBlur stdDeviation="2"/>
<feComposite in2="hardAlpha" operator="out"/>
<feColorMatrix type="matrix" values="0 0 0 0 0 0 0 0 0 0 0 0 0 0 0 0 0 0 0.25 0"/>
<feBlend mode="normal" in2="BackgroundImageFix" result="effect1_dropShadow_115_4"/>
<feBlend mode="normal" in="SourceGraphic" in2="effect1_dropShadow_115_4" result="shape"/>
</filter>
<linearGradient id="paint0_linear_115_4" x1="206.49" y1="19.4467" x2="206.54" y2="51.964" gradientUnits="userSpaceOnUse">
<stop stop-color="#FFF3CA"/>
<stop offset="1" stop-color="#FFA800"/>
</linearGradient>
</defs>
</svg>
